<svg id="圖層_1" data-name="圖層 1" xmlns="http://www.w3.org/2000/svg" viewBox="0 0 78 70"><defs><style>.cls-1{fill:#333;}</style></defs><title>icon_pop_exchange</title><path class="cls-1" d="M76.93,34.6c-3.85-3.84-4-3.86-4.44-4.09a2.28,2.28,0,0,0-2.39.28c-.16.12-.06,0-3.84,3.81a2.28,2.28,0,0,0,2.92,3.48A30.54,30.54,0,0,1,41.06,65.45,2.28,2.28,0,1,0,41.39,70,35.07,35.07,0,0,0,73.76,38a2.73,2.73,0,0,0,1.56.48,2.28,2.28,0,0,0,1.61-3.89Z"/><path class="cls-1" d="M36.53,4.55A2.28,2.28,0,1,0,36.2,0,35.08,35.08,0,0,0,3.83,32a2.48,2.48,0,0,0-3.16.18,2.29,2.29,0,0,0,0,3.23C4.93,39.66,4.39,39,4.51,39.09A2.29,2.29,0,0,0,7.69,39l3.64-3.64a2.28,2.28,0,0,0-2.92-3.48A30.54,30.54,0,0,1,36.53,4.55Z"/><path class="cls-1" d="M60.52,35A21.72,21.72,0,1,0,38.8,56.72,21.75,21.75,0,0,0,60.52,35ZM38.8,52.16A17.16,17.16,0,1,1,56,35,17.18,17.18,0,0,1,38.8,52.16Z"/><path class="cls-1" d="M37,23.06v2.28a6,6,0,0,0,2,11.66,2,2,0,0,1,2,1.62A2,2,0,0,1,39,41a3.63,3.63,0,0,1-2.59-1.51,2,2,0,1,0-3.07,2.57A8.37,8.37,0,0,0,37,44.67v2.27a2,2,0,0,0,1.7,2A2,2,0,0,0,41,47V44.66A6,6,0,0,0,39,33a2,2,0,1,1,0-4,3.21,3.21,0,0,1,2.17,1.05,2,2,0,0,0,2.78-2.88A7.72,7.72,0,0,0,41,25.33V23a2,2,0,0,0-2.3-2A2,2,0,0,0,37,23.06Z"/></svg>