<svg xmlns="http://www.w3.org/2000/svg" viewBox="0 0 21.13 26"><defs><style>.cls-1{fill:#2d4161;}</style></defs><title>icon_資產 19</title><g id="圖層_2" data-name="圖層 2"><g id="圖層_1-2" data-name="圖層 1"><path class="cls-1" d="M8.72,17.17A1,1,0,0,1,8,16.88L5.36,14.22a1,1,0,0,1,0-1.41,1,1,0,0,1,1.41,0l2,1.95,5.64-5.64a1,1,0,0,1,1.41,0,1,1,0,0,1,0,1.42L9.43,16.88A1,1,0,0,1,8.72,17.17Z"/><path class="cls-1" d="M20.53,3.81,10.85.06a.93.93,0,0,0-.23,0V0h-.11V0a.85.85,0,0,0-.23,0L.6,3.81a.94.94,0,0,0-.6.87v7.49C0,22.68,8.4,25.45,10.13,25.91H10a2.34,2.34,0,0,0,.34.07l.17,0h.11l.17,0a2.34,2.34,0,0,0,.34-.07H11c1.73-.46,10.13-3.23,10.13-13.74V4.68A.94.94,0,0,0,20.53,3.81Zm-1.28,8.36c0,9.3-7.27,11.56-8.69,11.92-1.42-.36-8.69-2.62-8.69-11.92V5.31L10.56,2l8.69,3.36Z"/></g></g></svg>