<svg id="圖層_1" data-name="圖層 1" xmlns="http://www.w3.org/2000/svg" viewBox="0 0 70 64"><defs><style>.cls-1{fill:#333;}</style></defs><title>icon_pop_ransom</title><path class="cls-1" d="M68.05,34.5a6.66,6.66,0,0,0-9.19-.22L50,42.35a6.66,6.66,0,0,0-6.11-4h-11a14.49,14.49,0,0,0-18.57-1.76,5.93,5.93,0,0,0-5.49-3.72H0V63.1H8.72a5.91,5.91,0,0,0,5.66-4.25L23.71,62H49.3L68,44a6.66,6.66,0,0,0,.09-9.51ZM8.62,59H4V37H8.62a1.77,1.77,0,0,1,1.78,1.78V57.22A1.78,1.78,0,0,1,8.62,59ZM65,41,47.49,57.9H24.25l-9.74-3.31V41.67a10.16,10.16,0,0,1,15.57,0l.61.72h13a2.6,2.6,0,0,1,.06,5.2H32v4H43.71A6.66,6.66,0,0,0,49.6,48L61.46,37.21a2.56,2.56,0,0,1,3.89.53,2.45,2.45,0,0,1,.35.87A2.58,2.58,0,0,1,65,41Z"/><path class="cls-1" d="M56.26,0H26.14V30.11H56.26ZM38.87,4.11h4.66V9H38.87ZM52.15,26H30.25V4.11h4.52v9H47.64v-9h4.51Z"/></svg>