<svg xmlns="http://www.w3.org/2000/svg" viewBox="0 0 29 29"><defs><style>.cls-1{fill:#2d4161;}</style></defs><title>icon_資產 18</title><g id="圖層_2" data-name="圖層 2"><g id="圖層_1-2" data-name="圖層 1"><path class="cls-1" d="M25.38,29A3.63,3.63,0,1,1,29,25.37,3.64,3.64,0,0,1,25.38,29Zm0-5.44a1.81,1.81,0,1,0,1.81,1.81A1.82,1.82,0,0,0,25.38,23.56Z"/><path class="cls-1" d="M13.31,27.39v-2a.94.94,0,0,1,.94-.94h8.31a.56.56,0,0,1,.44.21.93.93,0,0,1-.63,1.61H15.12v.9a.93.93,0,0,1-1.61.63A.56.56,0,0,1,13.31,27.39Z"/><path class="cls-1" d="M15.69,27.16V25.39a.92.92,0,0,1,.8-.92.91.91,0,0,1,1,.9v1.81a.9.9,0,0,1-1,.9A.92.92,0,0,1,15.69,27.16Z"/><path class="cls-1" d="M10,24.14H2.72A2.72,2.72,0,0,1,0,21.43V11.17A2.72,2.72,0,0,1,2.72,8.45H16.6a2.71,2.71,0,0,1,2.71,2.72v9.65a.91.91,0,1,1-1.81,0V11.17a.9.9,0,0,0-.9-.9H2.72a.9.9,0,0,0-.91.9V21.43a.91.91,0,0,0,.91.9H9.94a.92.92,0,0,1,.93.8A.91.91,0,0,1,10,24.14Z"/><path class="cls-1" d="M14.89,10.26a.91.91,0,0,1-1-.9V6.09A4.22,4.22,0,1,0,5.44,6V9.34a.91.91,0,1,1-1.82,0V6.1A6,6,0,1,1,15.69,6V9.34A.92.92,0,0,1,14.89,10.26Z"/></g></g></svg>