<svg xmlns="http://www.w3.org/2000/svg" viewBox="0 0 17.16 30"><defs><style>.cls-1{fill:#f2a346;}</style></defs><title>icon_資產 17</title><g id="圖層_2" data-name="圖層 2"><g id="圖層_1-2" data-name="圖層 1"><path class="cls-1" d="M9,13.13V6.46s3.68.83,4.82,1.7a1.37,1.37,0,0,0,.78.25A1.64,1.64,0,0,0,16.24,6.8a1.45,1.45,0,0,0-.42-1C14.16,4.36,10.5,3.39,10.5,3.39V1.16S9.37,0,8.74,0H8.69C8,0,7.5,1.16,7.5,1.16V3.32S.34,6.25.34,9.75c0,4.3,3.65,5.5,7.16,6.44v7.58a9.86,9.86,0,0,1-5-2.22,1.62,1.62,0,0,0-.95-.34A1.65,1.65,0,0,0,0,22.88a1.48,1.48,0,0,0,.41,1C2.37,25.66,9,26.76,9,26.76v2.08l-1.48,0A1.17,1.17,0,0,0,8.75,30c.64,0,1.75-1.16,1.75-1.16V26.72s6.66-3.48,6.66-6.82C17.16,15.44,9,13.13,9,13.13Zm-1.5-.61c-2.06-.6-3.67-1.23-3.67-3s1.46-3,3.67-3.2Zm3,11.29v-6.9c2.14.61,3.81,1.42,3.79,3.41C14.29,21.76,13.31,23.47,10.5,23.81Z"/></g></g></svg>