<svg id="圖層_1" data-name="圖層 1" xmlns="http://www.w3.org/2000/svg" viewBox="0 0 70 70"><defs><style>.cls-1{fill:#333;}</style></defs><title>icon_pop_search</title><path class="cls-1" d="M29.81,36.65C20.59,25,25.57,10.21,34.52,4S56.32-1.09,63.69,6.8A22.57,22.57,0,0,1,33.21,40l-9.15,9.18c0-.08,0,.05,0,.12,2.36,2.69,2.35,2.85-.24,5.44-4.39,4.38-8.75,8.79-13.17,13.14a5.89,5.89,0,0,1-6.27,1.76,6,6,0,0,1-4.3-4.89,5.58,5.58,0,0,1,1.66-5.15c4.85-5,9.77-9.84,14.69-14.72a2.06,2.06,0,0,1,3.18,0L20.78,46ZM29,22.32a18.48,18.48,0,0,0,37,.33,18.48,18.48,0,1,0-37-.33ZM18,49C13.5,53.52,9,58,4.55,62.47a1.83,1.83,0,0,0,.17,2.79,2,2,0,0,0,2.69.18,5.86,5.86,0,0,0,.68-.64q6.08-6.06,12.13-12.14c.24-.24.44-.52.61-.72Z"/><path class="cls-1" d="M45.51,10.5v2.29a6,6,0,0,0,2,11.65,2,2,0,0,1,2,1.62,2,2,0,0,1-2,2.38,3.61,3.61,0,0,1-2.6-1.51,2,2,0,0,0-3.06,2.57,8.29,8.29,0,0,0,3.66,2.61v2.27a2,2,0,0,0,1.7,2,2,2,0,0,0,2.3-2V32.1a6,6,0,0,0-2-11.66,2,2,0,1,1,0-4,3.17,3.17,0,0,1,2.16,1,2,2,0,0,0,2.79-2.88,7.92,7.92,0,0,0-3-1.84V10.44a2,2,0,0,0-2.3-2A2,2,0,0,0,45.51,10.5Z"/></svg>