<svg id="圖層_1" data-name="圖層 1" xmlns="http://www.w3.org/2000/svg" viewBox="0 0 50 60"><defs><style>.cls-1{fill:#333;}</style></defs><title>icon_pop_record</title><path class="cls-1" d="M3.46,49.47V3.07C3.46.42,3.89,0,6.58,0H46.34c2.29,0,2.84.55,2.85,2.82q0,25.42,0,50.86,0,6.3-6.34,6.31Q25.92,60,9,60A8.76,8.76,0,0,1,.11,52.47c-.38-2.25.16-2.89,2.47-2.95C2.8,49.52,3,49.5,3.46,49.47ZM45.7,3.61H7V49.53H39.48c2.21,0,2.63.43,2.65,2.68,0,.89,0,1.78,0,2.67a1.58,1.58,0,0,0,1.63,1.61,1.73,1.73,0,0,0,1.87-1.55,6,6,0,0,0,0-1.2V3.61ZM3.9,53a5,5,0,0,0,5,3.46q14.51,0,29,0c.3,0,.6-.06.9-.09-.07-1.16-.15-2.25-.22-3.38Z"/><path class="cls-1" d="M36.4,17.41H12.83A1.72,1.72,0,0,0,11.1,18.9a1.69,1.69,0,0,0,1.68,1.88H36.36a1.69,1.69,0,1,0,0-3.37Z"/><path class="cls-1" d="M29.66,25.63H12.83a1.73,1.73,0,0,0-1.73,1.5A1.69,1.69,0,0,0,12.78,29H29.61a1.71,1.71,0,0,0,1.72-1.5A1.69,1.69,0,0,0,29.66,25.63Z"/><path class="cls-1" d="M29.66,33.85H12.83a1.73,1.73,0,0,0-1.73,1.5,1.69,1.69,0,0,0,1.68,1.88H29.61a1.71,1.71,0,0,0,1.72-1.5A1.69,1.69,0,0,0,29.66,33.85Z"/></svg>