<svg xmlns="http://www.w3.org/2000/svg" viewBox="0 0 250 40.2"><defs><style>.cls-1,.cls-2{fill:#fff;}.cls-2{fill-rule:evenodd;}</style></defs><title>icon_資產 14</title><g id="圖層_2" data-name="圖層 2"><g id="圖層_1-2" data-name="圖層 1"><path class="cls-1" d="M110.69,11a2.66,2.66,0,0,1-1.64.92V25.46c0,.33-3.28,1.42-5.38,1.42h-1.13V23.36h-8V37.89c0,.63-2.81,2.23-5.29,2.23H88V23.36H80.15v2.18c0,.63-2.86,2.06-5.51,2.06h-.92V7.1l6.89,2.6H88V.25L96.11,1c-.09.59-.38,1.05-1.56,1.22V9.7h7.61l2.77-3.06ZM88,22.18V10.88H80.15v11.3Zm14.5,0V10.88h-8v11.3Z"/><path class="cls-1" d="M133.78,1.39s2.94,2.47,4.58,4.15c-.08.47-.55.68-1.13.68H132l.38,3a3.88,3.88,0,0,1-2.36,1.3l6.93.63c-.08.59-.37,1-1.42,1.14V23.52C135.46,31,132.4,37.3,120.38,40.2l-.25-.38c5.21-2.69,7.73-6.21,8.82-10.25-1.81,1.22-4.07,2.61-6.85,4.25A1.84,1.84,0,0,1,121,34.91l-3.19-6c2.14-.25,6.68-1,11.67-1.81a32.87,32.87,0,0,0,.21-3.61v-.67h-9l-.37-1.18h9.4V16.3H119.25l-.38-1.18h10.79V10.63a18,18,0,0,1-3.06.17l-.55-4.58h-7.56L118.15,5h7.78L125.38.21l7.31.5c0,.51-.34,1-1.22,1.18l.29,2.39Zm9.33,4.83h-4L138.78,5h4.5L144,.21l7.22,1.26c-.12.5-.42,1-1.59,1.05L149.24,5h.63l2.56-3.65s2.94,2.47,4.62,4.15c-.12.47-.58.68-1.17.68H149l-.55,3.65c-1.09.88-3.48,1.26-6,.76ZM152,25.88s3.15,2.31,5.09,3.95c-.13.46-.59.67-1.18.67H145.33v7.9c0,.5-2.56,1.68-4.83,1.68h-1.05V10.84l7.44.67c-.09.59-.38,1.05-1.56,1.22v2.39h3.28l2.69-3.32s3.06,2.23,4.91,3.83c-.12.46-.54.67-1.17.67h-9.71v5.42h2.9l2.61-3.24s3,2.19,4.79,3.74c-.13.46-.55.67-1.18.67h-9.12v6.43h3.87Z"/><path class="cls-1" d="M179.18,2.39c-.17.55-.71.93-1.72.93a54.3,54.3,0,0,1-4,8.74l2.19.79c-.13.42-.47.68-1.31.84V38.4c-.08.46-2.52,1.68-4.87,1.68h-1.13V19.16a32.47,32.47,0,0,1-4.58,4.15l-.42-.29a77.48,77.48,0,0,0,7.43-23ZM199,4.24s3.32,2.73,5.25,4.54c-.13.46-.59.67-1.18.67h-26.8l-.33-1.17H196ZM178.76,15.33l-.33-1.17h15.62l2.69-3.7s3,2.52,4.79,4.2c-.08.46-.55.67-1.18.67Zm.34,6.18-.34-1.18H194l2.69-3.69s3.06,2.52,4.83,4.2c-.13.46-.59.67-1.18.67Zm17.35,1.34L201.91,27a2.58,2.58,0,0,1-1.64.92V38c0,.38-3,1.56-5,1.56h-1V36.34H184.9v1.89c0,.54-2.65,1.85-5.13,1.85h-.84V23.36l6.26,2.39h8.57ZM184.56,0c13.57.29,8.49,11,2.94,7.06A13.3,13.3,0,0,0,184.31.21Zm9.62,35.16V26.93H184.9v8.23Z"/><path class="cls-1" d="M248.19,32.85c1.43.71,1.81,1.43,1.81,2.56,0,2.4-1.89,3.53-8.11,3.53h-3.15c-4.33,0-5.46-1.09-5.46-5.08V20h-6L227,18.78h6.3V8.4c-1.72.3-3.44.51-5.12.72-.13.42-.55.63-1.14.63H210.39l-.34-1.18h11.68l2.31-3s2,1.69,3.57,3A61.48,61.48,0,0,0,241.43.34l6.68,5c-.5.5-1.47.67-3,.29-1.64.55-3.66,1.09-5.88,1.6V18.78h3.15l2.68-3.53s3,2.39,4.84,4c-.13.46-.59.67-1.18.67h-9.49V32.09c0,.8.25,1,1.17,1h2.19c.67,0,1.3,0,1.72,0a1.21,1.21,0,0,0,1.09-.59,42.31,42.31,0,0,0,2.19-6.09H248ZM222.9,11.05s2.53,2,4,3.4c-.13.46-.55.67-1.14.67H212.11L211.77,14h8.95Zm0,5.5s2.53,2,4,3.4c-.13.47-.55.68-1.14.68H212.11l-.34-1.18h8.95Zm0,6,4.79,3.61a2.49,2.49,0,0,1-1.47.75v9.58c-.05.34-2.57,1.43-4.33,1.43H221V35.5h-3.52V38c0,.5-2.23,1.64-4.42,1.64h-.75V22.89l5.33,2.1h3ZM214.29,1c12.56-.42,7.82,9.41,2.52,6A11.67,11.67,0,0,0,214,1.22ZM221,34.32V26.17h-3.52v8.15Z"/><path class="cls-2" d="M24.62.1c.81.08,1.63.18,2.45.23A37.68,37.68,0,0,1,38.41,2.75a21,21,0,0,1,7.43,4.73,15.5,15.5,0,0,1,4.59,9.42,17,17,0,0,1-6.09,15.38A30.87,30.87,0,0,1,30.66,38.8,42.79,42.79,0,0,1,21.1,40c-6.84.06-13.67.07-20.5.09l-.25,0c0-.17,0-.32,0-.48,0-5,0-10,0-15,0-.42.1-.57.53-.57,4,0,8,0,12,0,.14,0,.28,0,.48,0V36.65a1.68,1.68,0,0,0,.25.08,37.84,37.84,0,0,0,10.86-1.08,17.2,17.2,0,0,0,6.32-3.1,13.49,13.49,0,0,0,4.5-6.67,21.92,21.92,0,0,0,.59-11C34.85,10.2,32,7.11,27.58,5.35a22,22,0,0,0-7.15-1.61c-2.91-.15-5.84-.19-8.75-.22-3.56,0-7.11,0-10.66,0H.29V.1Z"/><path class="cls-2" d="M13.55,14.55A6.78,6.78,0,1,1,6.33,8,6.78,6.78,0,0,1,13.55,14.55Z"/></g></g></svg>