<svg id="圖層_1" data-name="圖層 1" xmlns="http://www.w3.org/2000/svg" viewBox="0 0 70 62"><defs><style>.cls-1{fill:#333;}</style></defs><title>icon_pop_shopping</title><path class="cls-1" d="M2.05,4.1H14.53a2.2,2.2,0,0,1,2.15,2c0,.52-.45-3.88,3.91,35.33a6.15,6.15,0,0,0,2.35,11.88h2.29a6.16,6.16,0,1,0,12,2,6.05,6.05,0,0,0-.36-2h13a6.15,6.15,0,1,0,11.94,1.62,6.35,6.35,0,0,0-6.23-5.72H22.89a2.1,2.1,0,0,1-2.1-1.81,2.05,2.05,0,0,1,2-2.29H60.37A6.13,6.13,0,0,0,66.44,40L70,18.79a2,2,0,0,0-1-2.12,2.11,2.11,0,0,0-1-.26H61.78V6.15A2.05,2.05,0,0,0,59.73,4.1H43.32a2.05,2.05,0,0,0-2,2.05v2H31A2,2,0,0,0,29,10.25v6.16H21.91L20.76,6a6.16,6.16,0,0,0-6.15-6H2.1A2.09,2.09,0,0,0,0,1.82,2.06,2.06,0,0,0,2.05,4.1Zm31,51.27a2.06,2.06,0,1,1-2.05-2A2.05,2.05,0,0,1,33.09,55.37Zm22.55,2.05a2.05,2.05,0,1,1,2.06-2.05A2.05,2.05,0,0,1,55.64,57.42ZM45.37,8.2H57.68v8.21H45.37Zm-12.3,4.1h8.2v4.11h-8.2Zm32.46,8.21L62.4,39.3a2.05,2.05,0,0,1-2,1.72H24.67L22.39,20.51Z"/><path class="cls-1" d="M33.07,34.81v-8.1a2.09,2.09,0,0,0-1.82-2.09,2.05,2.05,0,0,0-2.28,2v8.2a2,2,0,0,0,2.28,2A2.08,2.08,0,0,0,33.07,34.81Z"/><path class="cls-1" d="M45.37,34.81v-8.1a2.09,2.09,0,0,0-1.82-2.09,2.06,2.06,0,0,0-2.28,2v8.2a2.05,2.05,0,0,0,2.28,2A2.08,2.08,0,0,0,45.37,34.81Z"/><path class="cls-1" d="M57.68,34.81v-8.1a2.1,2.1,0,0,0-1.82-2.09,2.06,2.06,0,0,0-2.29,2v8.2a2.05,2.05,0,0,0,2.29,2A2.09,2.09,0,0,0,57.68,34.81Z"/></svg>