<svg xmlns="http://www.w3.org/2000/svg" viewBox="0 0 30 29.84"><defs><style>.cls-1{fill:#f2a346;}</style></defs><title>icon_資產 9</title><g id="圖層_2" data-name="圖層 2"><g id="圖層_1-2" data-name="圖層 1"><path class="cls-1" d="M30,7a4.69,4.69,0,0,0-4.69-4.69H23.75V1.17a1.25,1.25,0,0,0-2.5,0V2.35H8.75V1.17A1.21,1.21,0,0,0,7.5,0,1.21,1.21,0,0,0,6.25,1.17V2.35H4.69A4.68,4.68,0,0,0,0,7V25.16a4.68,4.68,0,0,0,4.69,4.68H25.31A4.67,4.67,0,0,0,30,25.18s0-.06,0-.1S30,25,30,25ZM25.06,27.34H4.84A2.34,2.34,0,0,1,2.5,25V7.19A2.35,2.35,0,0,1,4.84,4.84H6.25V6a1.25,1.25,0,0,0,2.5,0V4.84h12.5V6a1.25,1.25,0,0,0,2.5,0V4.84h1.41A2.35,2.35,0,0,1,27.5,7.19V24.85s0,.07,0,.1a.14.14,0,0,1,0,.07A2.68,2.68,0,0,1,25.06,27.34Z"/><path class="cls-1" d="M15.38,21.81H19.9a1.15,1.15,0,0,1,1,1.85,1.09,1.09,0,0,1-.9.44H10.79a1.15,1.15,0,1,1,0-2.29Z"/><path class="cls-1" d="M11.91,19.16h-1.1A1.15,1.15,0,0,1,9.65,18a1.12,1.12,0,0,1,1.13-1.17c.77,0,1.53,0,2.29,0a1.15,1.15,0,1,1,0,2.3Z"/></g></g></svg>