<svg id="圖層_1" data-name="圖層 1" xmlns="http://www.w3.org/2000/svg" viewBox="0 0 20 20"><defs><style>.cls-1{fill:#999;}</style></defs><title>icon_update</title><path class="cls-1" d="M20,6.58a1.48,1.48,0,0,1-1.48,1.48h-4a1.5,1.5,0,1,1,0-3H17V2.56a1.5,1.5,0,1,1,3,0Z"/><path class="cls-1" d="M1.5,19.06A1.5,1.5,0,0,1,0,17.56v-4a1.47,1.47,0,0,1,1.48-1.47h4a1.5,1.5,0,1,1,0,3H3v2.5A1.5,1.5,0,0,1,1.5,19.06Z"/><path class="cls-1" d="M1.8,8.88a1.61,1.61,0,0,1-.43-.07A1.49,1.49,0,0,1,.38,7,9.85,9.85,0,0,1,18.49,5.22a1.48,1.48,0,0,1-2.62,1.39A6.88,6.88,0,0,0,3.21,7.83,1.49,1.49,0,0,1,1.8,8.88Z"/><path class="cls-1" d="M9.81,19.72A9.82,9.82,0,0,1,1.12,14.5a1.48,1.48,0,0,1,2.62-1.39A6.88,6.88,0,0,0,16.4,11.89a1.48,1.48,0,1,1,2.82.87A9.81,9.81,0,0,1,9.81,19.72Z"/></svg>