<svg id="圖層_1" data-name="圖層 1" xmlns="http://www.w3.org/2000/svg" viewBox="0 0 25 14"><defs><style>.cls-1{fill:#f2a346;}</style></defs><title>icon_trend</title><path class="cls-1" d="M1.56,14a1.56,1.56,0,0,1-1.39-.84,1.61,1.61,0,0,1,.34-1.87L7.77,4a1.55,1.55,0,0,1,1.1-.46A1.59,1.59,0,0,1,10,4l4.21,4.22a.26.26,0,0,0,.18.07.26.26,0,0,0,.19-.07l4.68-4.69a.24.24,0,0,0,.06-.28.26.26,0,0,0-.24-.15h-.94a1.56,1.56,0,0,1,0-3.12h5.47A1.57,1.57,0,0,1,25,1.56V7a1.56,1.56,0,0,1-3.12,0V5.94a.26.26,0,0,0-.15-.24h-.1a.25.25,0,0,0-.18.06l-6,6a1.51,1.51,0,0,1-1.1.46,1.54,1.54,0,0,1-1.1-.46L9.05,7.51a.24.24,0,0,0-.36,0l-6,6A1.58,1.58,0,0,1,1.56,14Z"/></svg>