<svg xmlns="http://www.w3.org/2000/svg" viewBox="0 0 20 25.99"><defs><style>.cls-1{fill:#2d4161;}</style></defs><title>icon_資產 15</title><g id="圖層_2" data-name="圖層 2"><g id="圖層_1-2" data-name="圖層 1"><path class="cls-1" d="M18.76,26a1,1,0,0,1-.79-1,7.22,7.22,0,0,0-7.21-7.17H9.24A7.22,7.22,0,0,0,2,24.94a1,1,0,0,1-.8,1A1,1,0,0,1,0,25a9.25,9.25,0,0,1,9.24-9.24h1.52A9.25,9.25,0,0,1,20,25,1,1,0,0,1,18.76,26Z"/><path class="cls-1" d="M9.9,13.72a6.86,6.86,0,1,1,6.86-6.86A6.86,6.86,0,0,1,9.9,13.72ZM9.9,2a4.83,4.83,0,1,0,4.83,4.83A4.84,4.84,0,0,0,9.9,2Z"/></g></g></svg>