<svg xmlns="http://www.w3.org/2000/svg" viewBox="0 0 20 26"><defs><style>.cls-1,.cls-2{fill:#fff;}.cls-2{stroke:#fff;stroke-miterlimit:10;stroke-width:0.5px;}</style></defs><title>icon_資產 12</title><g id="圖層_2" data-name="圖層 2"><g id="圖層_1-2" data-name="圖層 1"><path class="cls-1" d="M15.86,3.66c.14.33-.3.75-.73.78a.75.75,0,0,1-.54-.18L11.68,2A3.12,3.12,0,0,0,7.9,2L2.61,6.09A3.11,3.11,0,0,0,1.38,8.57V21.15A3.13,3.13,0,0,0,4.5,24.28H15.26s3.13-1.42,3-3.14V8.57a2.77,2.77,0,0,0-1.11-2.5.78.78,0,0,1,.95-1.24A4.9,4.9,0,0,1,20,8.57V21.14C20,23.72,15.26,26,15.26,26H4.69A4.69,4.69,0,0,1,0,21.31V8.73A4.68,4.68,0,0,1,1.84,5L7.13,1A4.67,4.67,0,0,1,12.8,1l1.68,1.28A10,10,0,0,1,15.86,3.66Z"/><path class="cls-2" d="M7,8.85a1,1,0,1,0,1,1A1,1,0,0,0,7,8.85Z"/><path class="cls-2" d="M8,14.39a1,1,0,0,1-2,0A1,1,0,0,1,8,14.39Z"/><path class="cls-2" d="M8,19a1,1,0,0,1-2,0A1,1,0,0,1,8,19Z"/><path class="cls-2" d="M13,8.85a1,1,0,1,0,1,1A1,1,0,0,0,13,8.85Z"/><path class="cls-2" d="M14,14.39a1,1,0,0,1-2,0A1,1,0,0,1,14,14.39Z"/><path class="cls-2" d="M14,19a1,1,0,0,1-2,0A1,1,0,0,1,14,19Z"/></g></g></svg>