<svg xmlns="http://www.w3.org/2000/svg" viewBox="0 0 42 42"><defs><style>.cls-1{fill:#f2a346;}</style></defs><title>icon_資產 1</title><g id="圖層_2" data-name="圖層 2"><g id="圖層_1-2" data-name="圖層 1"><path class="cls-1" d="M21,42A21,21,0,1,1,42,21,21,21,0,0,1,21,42ZM21,2A19,19,0,1,0,40,21,19,19,0,0,0,21,2Z"/><path class="cls-1" d="M22.37,21l5.84-5.84a1,1,0,0,0,0-1.37,1,1,0,0,0-1.37,0L21,19.63l-5.84-5.84a1,1,0,0,0-1.37,1.37L19.63,21l-5.84,5.84a1,1,0,0,0,.68,1.66,1,1,0,0,0,.69-.28L21,22.37l5.84,5.85a1,1,0,0,0,.69.28,1,1,0,0,0,.68-.28,1,1,0,0,0,0-1.38Z"/></g></g></svg>